<mxfile host="app.diagrams.net" agent="Mozilla/5.0 (Windows NT 10.0; Win64; x64) AppleWebKit/537.36 (KHTML, like Gecko) Chrome/127.0.0.0 Safari/537.36" version="24.7.7">
  <diagram name="第 1 页" id="mvbAVE675NcKqQ0pU4Vp">
    <mxGraphModel dx="1050" dy="557" grid="1" gridSize="10" guides="1" tooltips="1" connect="1" arrows="1" fold="1" page="1" pageScale="1" pageWidth="827" pageHeight="1169" math="0" shadow="0">
      <root>
        <mxCell id="0" />
        <mxCell id="1" parent="0" />
        <mxCell id="mY2I1totV-w78vPAcYFQ-46" value="" style="group;movable=1;resizable=1;rotatable=1;deletable=1;editable=1;locked=0;connectable=1;rounded=0;" vertex="1" connectable="0" parent="1">
          <mxGeometry x="130" y="640" width="750" height="140" as="geometry" />
        </mxCell>
        <mxCell id="mY2I1totV-w78vPAcYFQ-22" value="" style="rounded=1;whiteSpace=wrap;html=1;movable=1;resizable=1;rotatable=1;deletable=1;editable=1;locked=0;connectable=1;container=0;fillColor=#dae8fc;strokeColor=#6c8ebf;" vertex="1" parent="mY2I1totV-w78vPAcYFQ-46">
          <mxGeometry width="750" height="140" as="geometry" />
        </mxCell>
        <mxCell id="mY2I1totV-w78vPAcYFQ-23" value="Boss直聘" style="rounded=1;whiteSpace=wrap;html=1;" vertex="1" parent="mY2I1totV-w78vPAcYFQ-46">
          <mxGeometry x="20" y="20" width="120" height="45" as="geometry" />
        </mxCell>
        <mxCell id="mY2I1totV-w78vPAcYFQ-24" value="企查查" style="rounded=1;whiteSpace=wrap;html=1;" vertex="1" parent="mY2I1totV-w78vPAcYFQ-46">
          <mxGeometry x="20" y="80" width="120" height="45" as="geometry" />
        </mxCell>
        <mxCell id="mY2I1totV-w78vPAcYFQ-25" value="前程无忧" style="rounded=1;whiteSpace=wrap;html=1;" vertex="1" parent="mY2I1totV-w78vPAcYFQ-46">
          <mxGeometry x="164" y="20" width="120" height="45" as="geometry" />
        </mxCell>
        <mxCell id="mY2I1totV-w78vPAcYFQ-26" value="智联招聘" style="rounded=1;whiteSpace=wrap;html=1;" vertex="1" parent="mY2I1totV-w78vPAcYFQ-46">
          <mxGeometry x="310" y="20" width="120" height="45" as="geometry" />
        </mxCell>
        <mxCell id="mY2I1totV-w78vPAcYFQ-27" value="猎聘网" style="rounded=1;whiteSpace=wrap;html=1;" vertex="1" parent="mY2I1totV-w78vPAcYFQ-46">
          <mxGeometry x="460" y="20" width="120" height="45" as="geometry" />
        </mxCell>
        <mxCell id="mY2I1totV-w78vPAcYFQ-28" value="IT桔子" style="rounded=1;whiteSpace=wrap;html=1;" vertex="1" parent="mY2I1totV-w78vPAcYFQ-46">
          <mxGeometry x="610" y="20" width="120" height="45" as="geometry" />
        </mxCell>
        <mxCell id="mY2I1totV-w78vPAcYFQ-29" value="企业官网" style="rounded=1;whiteSpace=wrap;html=1;" vertex="1" parent="mY2I1totV-w78vPAcYFQ-46">
          <mxGeometry x="164" y="80" width="120" height="45" as="geometry" />
        </mxCell>
        <mxCell id="mY2I1totV-w78vPAcYFQ-1" value="" style="rounded=1;whiteSpace=wrap;html=1;fillStyle=auto;fillColor=#d5e8d4;strokeColor=#82b366;" vertex="1" parent="1">
          <mxGeometry x="130" y="190" width="750" height="80" as="geometry" />
        </mxCell>
        <mxCell id="mY2I1totV-w78vPAcYFQ-4" value="企业情报系统" style="rounded=1;whiteSpace=wrap;html=1;" vertex="1" parent="1">
          <mxGeometry x="150" y="207.5" width="120" height="45" as="geometry" />
        </mxCell>
        <mxCell id="mY2I1totV-w78vPAcYFQ-5" value="CRM系统" style="rounded=1;whiteSpace=wrap;html=1;" vertex="1" parent="1">
          <mxGeometry x="294" y="207.5" width="120" height="45" as="geometry" />
        </mxCell>
        <mxCell id="mY2I1totV-w78vPAcYFQ-6" value="风控系统" style="rounded=1;whiteSpace=wrap;html=1;" vertex="1" parent="1">
          <mxGeometry x="440" y="207.5" width="120" height="45" as="geometry" />
        </mxCell>
        <mxCell id="mY2I1totV-w78vPAcYFQ-7" value="" style="rounded=1;whiteSpace=wrap;html=1;fillColor=#e1d5e7;strokeColor=#9673a6;" vertex="1" parent="1">
          <mxGeometry x="130" y="340" width="750" height="80" as="geometry" />
        </mxCell>
        <mxCell id="mY2I1totV-w78vPAcYFQ-8" value="支撑" style="shape=singleArrow;direction=north;whiteSpace=wrap;html=1;arrowWidth=0.31789486533717104;arrowSize=0.5160003662109375;" vertex="1" parent="1">
          <mxGeometry x="410" y="280" width="190" height="50" as="geometry" />
        </mxCell>
        <mxCell id="mY2I1totV-w78vPAcYFQ-10" value="日更数据" style="rounded=1;whiteSpace=wrap;html=1;" vertex="1" parent="1">
          <mxGeometry x="150" y="357.5" width="120" height="45" as="geometry" />
        </mxCell>
        <mxCell id="mY2I1totV-w78vPAcYFQ-11" value="企业信息" style="rounded=1;whiteSpace=wrap;html=1;" vertex="1" parent="1">
          <mxGeometry x="294" y="357.5" width="120" height="45" as="geometry" />
        </mxCell>
        <mxCell id="mY2I1totV-w78vPAcYFQ-12" value="融资信息" style="rounded=1;whiteSpace=wrap;html=1;" vertex="1" parent="1">
          <mxGeometry x="440" y="357.5" width="120" height="45" as="geometry" />
        </mxCell>
        <mxCell id="mY2I1totV-w78vPAcYFQ-13" value="舆情信息" style="rounded=1;whiteSpace=wrap;html=1;" vertex="1" parent="1">
          <mxGeometry x="590" y="357.5" width="120" height="45" as="geometry" />
        </mxCell>
        <mxCell id="mY2I1totV-w78vPAcYFQ-14" value="商机信息" style="rounded=1;whiteSpace=wrap;html=1;" vertex="1" parent="1">
          <mxGeometry x="740" y="357.5" width="120" height="45" as="geometry" />
        </mxCell>
        <mxCell id="mY2I1totV-w78vPAcYFQ-15" value="" style="rounded=1;whiteSpace=wrap;html=1;fillColor=#fff2cc;strokeColor=#d6b656;" vertex="1" parent="1">
          <mxGeometry x="130" y="490" width="750" height="80" as="geometry" />
        </mxCell>
        <mxCell id="mY2I1totV-w78vPAcYFQ-16" value="公司职位" style="rounded=1;whiteSpace=wrap;html=1;" vertex="1" parent="1">
          <mxGeometry x="150" y="507.5" width="120" height="45" as="geometry" />
        </mxCell>
        <mxCell id="mY2I1totV-w78vPAcYFQ-17" value="地图地址" style="rounded=1;whiteSpace=wrap;html=1;" vertex="1" parent="1">
          <mxGeometry x="740" y="507.5" width="120" height="45" as="geometry" />
        </mxCell>
        <mxCell id="mY2I1totV-w78vPAcYFQ-18" value="官网地址" style="rounded=1;whiteSpace=wrap;html=1;" vertex="1" parent="1">
          <mxGeometry x="590" y="507.5" width="120" height="45" as="geometry" />
        </mxCell>
        <mxCell id="mY2I1totV-w78vPAcYFQ-19" value="融资事件" style="rounded=1;whiteSpace=wrap;html=1;" vertex="1" parent="1">
          <mxGeometry x="440" y="507.5" width="120" height="45" as="geometry" />
        </mxCell>
        <mxCell id="mY2I1totV-w78vPAcYFQ-20" value="公司详情" style="rounded=1;whiteSpace=wrap;html=1;" vertex="1" parent="1">
          <mxGeometry x="294" y="507.5" width="120" height="45" as="geometry" />
        </mxCell>
        <mxCell id="mY2I1totV-w78vPAcYFQ-47" value="清洗" style="shape=singleArrow;direction=north;whiteSpace=wrap;html=1;arrowWidth=0.31789486533717104;arrowSize=0.5160003662109375;" vertex="1" parent="1">
          <mxGeometry x="405" y="430" width="190" height="50" as="geometry" />
        </mxCell>
        <mxCell id="mY2I1totV-w78vPAcYFQ-48" value="抓取" style="shape=singleArrow;direction=north;whiteSpace=wrap;html=1;arrowWidth=0.31789486533717104;arrowSize=0.5160003662109375;" vertex="1" parent="1">
          <mxGeometry x="400" y="580" width="190" height="50" as="geometry" />
        </mxCell>
        <mxCell id="mY2I1totV-w78vPAcYFQ-49" value="数据源" style="text;html=1;align=center;verticalAlign=middle;resizable=0;points=[];autosize=1;strokeColor=none;fillColor=none;" vertex="1" parent="1">
          <mxGeometry x="40" y="695" width="60" height="30" as="geometry" />
        </mxCell>
        <mxCell id="mY2I1totV-w78vPAcYFQ-50" value="原始数据" style="text;html=1;align=center;verticalAlign=middle;resizable=0;points=[];autosize=1;strokeColor=none;fillColor=none;" vertex="1" parent="1">
          <mxGeometry x="35" y="515" width="70" height="30" as="geometry" />
        </mxCell>
        <mxCell id="mY2I1totV-w78vPAcYFQ-51" value="应用数据" style="text;html=1;align=center;verticalAlign=middle;resizable=0;points=[];autosize=1;strokeColor=none;fillColor=none;" vertex="1" parent="1">
          <mxGeometry x="35" y="365" width="70" height="30" as="geometry" />
        </mxCell>
        <mxCell id="mY2I1totV-w78vPAcYFQ-52" value="业务平台" style="text;html=1;align=center;verticalAlign=middle;resizable=0;points=[];autosize=1;strokeColor=none;fillColor=none;" vertex="1" parent="1">
          <mxGeometry x="40" y="215" width="70" height="30" as="geometry" />
        </mxCell>
      </root>
    </mxGraphModel>
  </diagram>
</mxfile>
